<svg width="109" height="21" viewBox="0 0 109 21" fill="none" xmlns="http://www.w3.org/2000/svg">
    <path d="M0 13.3391C0 9.04569 2.76043 6.46964 5.6313 6.46964C6.25175 6.45934 6.86737 6.57947 7.43813 6.82227C8.00889 7.06506 8.52196 7.42503 8.94384 7.87874L8.74503 5.85315V1.44963H12.6539V19.9444H9.47383L9.18673 18.6014C8.22429 19.5932 6.92456 20.19 5.54301 20.2747C2.1863 20.0985 0 17.5005 0 13.3391ZM8.83345 15.8051V10.5209C8.24322 9.94753 7.4491 9.63084 6.62509 9.64019C5.18965 9.64019 3.97503 10.8071 3.97503 13.2951C3.97503 15.7831 4.92468 17.0161 6.5147 17.0161C6.98303 17.0158 7.44315 16.8938 7.84977 16.6621C8.25639 16.4305 8.59545 16.0972 8.83345 15.695V15.8051Z" fill="white"/>
    <path d="M15.9639 7.16574H19.8726L21.9484 13.3527C22.368 14.6517 22.7435 15.9948 23.141 17.3819C23.5385 15.9948 23.8918 14.6517 24.3335 13.3527L26.3873 7.16574H30.1194L25.3052 20.2662H20.8885L15.9639 7.16574Z" fill="white"/>
    <path d="M37.6379 10.2529H32.3599V7.25856H41.5467V20.3591H37.6379V10.2529ZM36.8208 2.76695C36.8229 2.43537 36.8934 2.10776 37.0277 1.80442C37.162 1.50108 37.3573 1.22848 37.6016 1.00348C37.8459 0.778491 38.134 0.605928 38.448 0.49645C38.7619 0.386972 39.095 0.342915 39.4267 0.367038C39.7573 0.342776 40.0894 0.386888 40.4021 0.496585C40.7149 0.606281 41.0016 0.779174 41.2441 1.00449C41.4867 1.22981 41.68 1.50268 41.8119 1.80596C41.9437 2.10924 42.0113 2.4364 42.0104 2.76695C42.0116 3.09662 41.944 3.42296 41.8119 3.72518C41.6798 4.0274 41.4862 4.29894 41.2432 4.52255C41.0002 4.74616 40.7132 4.91694 40.4005 5.02408C40.0878 5.13121 39.7562 5.17236 39.4267 5.14489C39.1027 5.1751 38.776 5.1389 38.4666 5.03852C38.1572 4.93815 37.8716 4.77574 37.6275 4.56126C37.3834 4.34677 37.186 4.08472 37.0472 3.7913C36.9085 3.49788 36.8314 3.17926 36.8208 2.85504V2.76695Z" fill="white"/>
    <path d="M45.5361 18.1745L52.382 10.2042H46.3532V7.16574H57.8146V9.25744L50.9245 17.2278H57.9912V20.2662H45.5361V18.1745Z" fill="white"/>
    <path d="M61.4798 1.72141H65.3886V6.23505L65.1457 8.76706C65.7021 8.14891 66.3831 7.65486 67.1442 7.31718C67.9053 6.97951 68.7294 6.80578 69.5624 6.80746C72.5216 6.80746 73.8246 8.83311 73.8246 12.1357V20.2162H69.9157V12.6422C69.9157 10.8808 69.4299 10.1101 67.9945 10.1101C67.4811 10.1384 66.9796 10.2747 66.5228 10.51C66.0661 10.7452 65.6645 11.0742 65.3444 11.4752V20.2823H61.4355L61.4798 1.72141Z" fill="white"/>
    <path d="M76.7182 13.491C76.6825 12.6016 76.8273 11.7142 77.1443 10.8821C77.4612 10.05 77.9436 9.29023 78.5624 8.64861C79.1812 8.007 79.9237 7.49669 80.7453 7.14834C81.5668 6.8 82.4505 6.62084 83.3433 6.62155C84.2361 6.62084 85.1198 6.8 85.9413 7.14834C86.7629 7.49669 87.5053 8.007 88.1241 8.64861C88.7429 9.29023 89.2253 10.05 89.5422 10.8821C89.8591 11.7142 90.0041 12.6016 89.9684 13.491C90.0041 14.3804 89.8591 15.2678 89.5422 16.1C89.2253 16.9321 88.7429 17.6918 88.1241 18.3335C87.5053 18.9751 86.7629 19.4854 85.9413 19.8337C85.1198 20.1821 84.2361 20.3612 83.3433 20.3605C82.4505 20.3612 81.5668 20.1821 80.7453 19.8337C79.9237 19.4854 79.1812 18.9751 78.5624 18.3335C77.9436 17.6918 77.4612 16.9321 77.1443 16.1C76.8273 15.2678 76.6825 14.3804 76.7182 13.491ZM86.1259 13.491C86.1259 11.2893 85.2204 9.74801 83.4316 9.74801C81.6428 9.74801 80.7153 11.2232 80.7153 13.491C80.7153 15.7588 81.6207 17.212 83.4316 17.212C85.2424 17.212 86.1259 15.6928 86.1259 13.491Z" fill="#6979F8"/>
    <path fill-rule="evenodd" clip-rule="evenodd" d="M97.2482 1.79855H93.3408V20.2556H97.2482V16.9816L99.1816 14.9183L102.59 20.2556H106.829L106.819 20.2416H109V17.2146H104.709L101.433 12.5159L106.431 7.18186H102.171L97.3585 12.4333H97.2482V1.79855Z" fill="#6979F8"/>
</svg>
