<svg width="28" height="28" viewBox="0 0 28 28" fill="none" xmlns="http://www.w3.org/2000/svg">
    <path d="M11.8031 20.9841H3.36328" stroke="white" stroke-width="2" stroke-linecap="round" stroke-linejoin="round"/>
    <path fill-rule="evenodd" clip-rule="evenodd" d="M24.6375 20.9845C24.6375 22.8402 23.1332 24.3445 21.2775 24.3445C19.4218 24.3445 17.9175 22.8402 17.9175 20.9845C17.9175 19.1275 19.4218 17.6245 21.2775 17.6245C23.1332 17.6245 24.6375 19.1275 24.6375 20.9845Z" stroke="white" stroke-width="2" stroke-linecap="round" stroke-linejoin="round"/>
    <path d="M16.1963 7.3059H24.6375" stroke="white" stroke-width="2" stroke-linecap="round" stroke-linejoin="round"/>
    <path fill-rule="evenodd" clip-rule="evenodd" d="M3.36279 7.3058C3.36279 9.16286 4.86711 10.6658 6.72279 10.6658C8.57848 10.6658 10.0828 9.16286 10.0828 7.3058C10.0828 5.45011 8.57848 3.9458 6.72279 3.9458C4.86711 3.9458 3.36279 5.45011 3.36279 7.3058Z" stroke="white" stroke-width="2" stroke-linecap="round" stroke-linejoin="round"/>
</svg>
