<svg width="18" height="18" viewBox="0 0 18 18" fill="none" xmlns="http://www.w3.org/2000/svg">
    <g clip-path="url(#clip0_2675_7197)">
        <path d="M13.5 1.5L13.9633 2.42669C14.1625 2.82492 14.262 3.02404 14.395 3.19659C14.513 3.34969 14.6503 3.48696 14.8034 3.60498C14.976 3.73798 15.1751 3.83754 15.5733 4.03666L16.5 4.5L15.5733 4.96334C15.1751 5.16246 14.976 5.26202 14.8034 5.39502C14.6503 5.51304 14.513 5.65031 14.395 5.80342C14.262 5.97596 14.1625 6.17508 13.9633 6.57331L13.5 7.5L13.0367 6.57331C12.8375 6.17508 12.738 5.97596 12.605 5.80341C12.487 5.65031 12.3497 5.51304 12.1966 5.39502C12.024 5.26202 11.8249 5.16246 11.4267 4.96334L10.5 4.5L11.4267 4.03666C11.8249 3.83754 12.024 3.73798 12.1966 3.60498C12.3497 3.48696 12.487 3.34969 12.605 3.19658C12.738 3.02404 12.8375 2.82492 13.0367 2.42669L13.5 1.5Z" stroke="white" stroke-width="1.5" stroke-linecap="round" stroke-linejoin="round"/>
        <path d="M15.75 10.042C14.7667 11.7668 12.9109 12.9296 10.7835 12.9296C7.62831 12.9296 5.07056 10.3719 5.07056 7.21675C5.07056 5.08915 6.23362 3.23321 7.95862 2.25C4.33484 2.59359 1.5 5.64519 1.5 9.3589C1.5 13.3028 4.69719 16.5 8.64112 16.5C12.3547 16.5 15.4061 13.6655 15.75 10.042Z" stroke="white" stroke-width="1.5" stroke-linecap="round" stroke-linejoin="round"/>
    </g>
    <defs>
        <clipPath id="clip0_2675_7197">
            <rect width="18" height="18" fill="white"/>
        </clipPath>
    </defs>
</svg>
